<svg xmlns="http://www.w3.org/2000/svg" width="14.875" height="17" viewBox="0 0 14.875 17"><defs></defs><path d="M14.477,15.938h-.664V.8a.8.8,0,0,0-.8-.8H1.859a.8.8,0,0,0-.8.8V15.938H.4a.4.4,0,0,0-.4.4V17H14.875v-.664A.4.4,0,0,0,14.477,15.938ZM4.25,2.523a.4.4,0,0,1,.4-.4H5.977a.4.4,0,0,1,.4.4V3.852a.4.4,0,0,1-.4.4H4.648a.4.4,0,0,1-.4-.4Zm0,3.188a.4.4,0,0,1,.4-.4H5.977a.4.4,0,0,1,.4.4V7.039a.4.4,0,0,1-.4.4H4.648a.4.4,0,0,1-.4-.4Zm1.727,4.914H4.648a.4.4,0,0,1-.4-.4V8.9a.4.4,0,0,1,.4-.4H5.977a.4.4,0,0,1,.4.4v1.328A.4.4,0,0,1,5.977,10.625ZM8.5,15.938H6.375V13.148a.4.4,0,0,1,.4-.4H8.1a.4.4,0,0,1,.4.4Zm2.125-5.711a.4.4,0,0,1-.4.4H8.9a.4.4,0,0,1-.4-.4V8.9a.4.4,0,0,1,.4-.4h1.328a.4.4,0,0,1,.4.4Zm0-3.187a.4.4,0,0,1-.4.4H8.9a.4.4,0,0,1-.4-.4V5.711a.4.4,0,0,1,.4-.4h1.328a.4.4,0,0,1,.4.4Zm0-3.187a.4.4,0,0,1-.4.4H8.9a.4.4,0,0,1-.4-.4V2.523a.4.4,0,0,1,.4-.4h1.328a.4.4,0,0,1,.4.4Z"/></svg>