<svg xmlns="http://www.w3.org/2000/svg" width="17" height="17" viewBox="0 0 17 17"><defs></defs><path d="M8.5,8A8.5,8.5,0,1,0,17,16.5,8.5,8.5,0,0,0,8.5,8Zm2.82,12.256-.388.387a.819.819,0,0,0-.211.367c-.052.194-.094.39-.163.578l-.6,1.606a6.849,6.849,0,0,1-1.462.161v-.938a2.566,2.566,0,0,0-.776-1.757,1.1,1.1,0,0,1-.321-.776v-1.1a1.093,1.093,0,0,0-.564-.959c-.493-.272-1.193-.653-1.673-.895a4.941,4.941,0,0,1-1.085-.745l-.027-.025a3.934,3.934,0,0,1-.619-.711C3.113,14.981,2.59,14.2,2.249,13.7a6.892,6.892,0,0,1,3.537-3.492l.823.412a.548.548,0,0,0,.794-.49V9.741a6.85,6.85,0,0,1,.836-.083l.97.97a.548.548,0,0,1,0,.776l-.161.16-.354.354a.274.274,0,0,0,0,.388l.161.161a.274.274,0,0,1,0,.388l-.274.274a.274.274,0,0,1-.194.08H8.078a.274.274,0,0,0-.191.078l-.34.331a.274.274,0,0,0-.054.319l.534,1.069a.274.274,0,0,1-.245.4H7.589a.274.274,0,0,1-.18-.067l-.318-.276a.549.549,0,0,0-.533-.106l-1.068.356a.41.41,0,0,0-.053.755l.38.19a2.321,2.321,0,0,0,1.039.245c.361,0,.774.935,1.1,1.1H10.24a1.1,1.1,0,0,1,.776.321l.469.469a1.045,1.045,0,0,1,.306.739,1.6,1.6,0,0,1-.47,1.13Zm2.972-3.131a.823.823,0,0,1-.485-.342l-.616-.924a.822.822,0,0,1,0-.912l.671-1.007a.822.822,0,0,1,.317-.279l.445-.222a6.64,6.64,0,0,1,.668,3.937Z" transform="translate(0 -8)"/></svg>