<svg xmlns="http://www.w3.org/2000/svg" xmlns:xlink="http://www.w3.org/1999/xlink" width="164" height="164" viewBox="0 0 164 164"><defs><style>.a{fill:#2e3848;}.b,.d,.e{opacity:0.5;mix-blend-mode:multiply;isolation:isolate;}.b{fill:url(#a);}.c{fill:#80ba27;}.d,.f{fill:#fff;}.g{fill:url(#b);}</style><linearGradient id="a" x1="0.714" y1="0.38" x2="0.012" y2="0.796" gradientUnits="objectBoundingBox"><stop offset="0" stop-color="#231f20"/><stop offset="1" stop-color="#fff"/></linearGradient><linearGradient id="b" x1="0.758" y1="0.319" x2="-0.022" y2="0.821" gradientUnits="objectBoundingBox"><stop offset="0" stop-color="#292627"/><stop offset="0.096" stop-color="#302d2e"/><stop offset="0.244" stop-color="#454243"/><stop offset="0.423" stop-color="#676566"/><stop offset="0.628" stop-color="#969595"/><stop offset="0.851" stop-color="#d2d2d2"/><stop offset="1" stop-color="#fff"/></linearGradient></defs><g transform="translate(0.084 -0.319)"><rect class="a" width="164" height="164" rx="15.018" transform="translate(-0.084 0.319)"/><path class="b" d="M21.468,154.065H59.219l52.628-32.61-61.9-97.419L0,58.646V132.6A21.531,21.531,0,0,0,21.468,154.065Z" transform="translate(0.112 10.059)"/><path class="c" d="M132.574,74.86A57.681,57.681,0,1,1,74.891,17.179,57.682,57.682,0,0,1,132.574,74.86Z" transform="translate(7.503 7.114)"/><path class="d" d="M54.113,37.625" transform="translate(23.351 15.895)"/><g class="e" transform="translate(97.559 50.725)"><path class="f" d="M68.171,35.67" transform="translate(-68.171 -35.67)"/><path class="f" d="M68.171,35.67" transform="translate(-68.171 -35.67)"/></g><g class="e" transform="translate(0.112 49.805)"><path class="g" d="M110.764,48.494s-.7-.851-1.854-2.071a33.221,33.221,0,0,0-5.176-4.814A21.322,21.322,0,0,0,97.842,38.1l0,.009a33.252,33.252,0,0,0-39.427,8.767l-7.682,7.5L0,99.315v29.823C2.077,147.3,18.261,149.1,18.261,149.1l99.982-49.5V42.313Z" transform="translate(0 -35.026)"/><path class="g" d="M110.764,48.494s-.7-.851-1.854-2.071a33.221,33.221,0,0,0-5.176-4.814A21.322,21.322,0,0,0,97.842,38.1l0,.009a33.252,33.252,0,0,0-39.427,8.767l-7.682,7.5L0,99.315v29.823C2.077,147.3,18.261,149.1,18.261,149.1l99.982-49.5V42.313Z" transform="translate(0 -35.026)"/></g><g transform="translate(49.033 49.8)"><g transform="translate(1.701)"><path class="f" d="M82.776,50.678l3.059,3.812,8.75-7.021A33.238,33.238,0,1,0,42.724,89.056l8.747-7.023-3.049-3.8a.268.268,0,0,1,.419-.333L51.893,81.7l7.758-6.215L56.6,71.673a.266.266,0,0,1,.043-.377.277.277,0,0,1,.377.044l3.052,3.805,8.378-6.716-3.059-3.805a.273.273,0,0,1,.046-.376.257.257,0,0,1,.376.044l3.049,3.8,8.7-6.979-3.049-3.8a.264.264,0,1,1,.41-.333l3.06,3.8,7.433-5.961-3.05-3.812a.266.266,0,0,1,.034-.377A.274.274,0,0,1,82.776,50.678Zm-31.5,17.3c-2.832-3.532-.447-10.133,5.312-14.762s12.738-5.5,15.56-1.98Z" transform="translate(-35.414 -35.023)"/></g><g transform="translate(0 7.292)"><path class="f" d="M34.224,97.411h26.5V91.573a.711.711,0,0,1,.71.71v5.127H65.51V91.573a.705.705,0,0,1,.708.71v5.127h4.077V91.573a.707.707,0,0,1,.71.71v5.127h4.077V91.573a.706.706,0,0,1,.709.71v5.127h4.078V91.573a.706.706,0,0,1,.709.71v5.127h4.077V91.573a.716.716,0,0,1,.719.71v5.127h4.075V91.573a.709.709,0,0,1,.708.71v5.127h13.388V40.124ZM92.483,86.62H65.753L92.483,64.529Z" transform="translate(-34.224 -40.124)"/></g></g></g></svg>