<svg xmlns="http://www.w3.org/2000/svg" width="21.857" height="17" viewBox="0 0 21.857 17"><defs></defs><path d="M18.214,46.571v.607A1.821,1.821,0,0,1,16.393,49H1.821A1.821,1.821,0,0,1,0,47.179V37.464a1.821,1.821,0,0,1,1.821-1.821h.607v7.893a3.039,3.039,0,0,0,3.036,3.036Zm3.643-3.036V33.821A1.821,1.821,0,0,0,20.036,32H5.464a1.821,1.821,0,0,0-1.821,1.821v9.714a1.821,1.821,0,0,0,1.821,1.821H20.036A1.821,1.821,0,0,0,21.857,43.536ZM9.714,35.643a1.821,1.821,0,1,1-1.821-1.821A1.821,1.821,0,0,1,9.714,35.643ZM6.071,41.107,8.178,39a.455.455,0,0,1,.644,0l1.5,1.5,5.142-5.142a.455.455,0,0,1,.644,0l3.321,3.321v4.25H6.071Z" transform="translate(0 -32)"/></svg>