<svg xmlns="http://www.w3.org/2000/svg" width="268.296" height="106.722" viewBox="0 0 268.296 106.722"><defs><style>.a,.i{fill:#fff;}.b,.c{fill:#d9dbdc;}.b,.e,.f,.h,.i{fill-rule:evenodd;}.d{fill:#8c9297;}.e{fill:#666d75;}.f{fill:#798086;}.g{fill:#535b63;}.h{fill:#404952;}.j{fill:#74b12c;}</style></defs><g transform="translate(-826 -487)"><rect class="a" width="268.296" height="106.722" transform="translate(826 487)"/><path d="M117.672,86.569H115.44l-4.97-17.926L105.5,86.569h-2.233L97.545,64.177h2.548l4.371,18.052L109.4,64.177h2.138l4.937,18.052,4.372-18.052H123.4Z" transform="translate(826 487)"/><path d="M126.886,79.43c0,3.4,1.6,5.346,4.561,5.346a5.078,5.078,0,0,0,4.056-1.761l1.541,1.353a7.086,7.086,0,0,1-5.661,2.389c-4.088,0-6.761-2.453-6.761-7.924,0-5,2.421-7.925,6.353-7.925,3.994,0,6.352,2.893,6.352,7.484V79.43Zm7.705-4.277a3.974,3.974,0,0,0-7.233,0,6.514,6.514,0,0,0-.472,2.579h8.177A6.515,6.515,0,0,0,134.591,75.153Z" transform="translate(826 487)"/><path d="M147.013,86.757a8.53,8.53,0,0,1-6.353-2.232l1.509-1.51a6.334,6.334,0,0,0,4.813,1.793c2.547,0,4.119-.912,4.119-2.736,0-1.353-.786-2.107-2.578-2.265l-2.548-.219c-3.019-.252-4.623-1.6-4.623-4.152,0-2.83,2.39-4.528,5.692-4.528a8.749,8.749,0,0,1,5.567,1.667l-1.479,1.477a6.609,6.609,0,0,0-4.119-1.226c-2.265,0-3.46.975-3.46,2.548,0,1.32.755,2.106,2.705,2.263l2.484.221c2.705.251,4.56,1.289,4.56,4.183C153.3,85.028,150.755,86.757,147.013,86.757Z" transform="translate(826 487)"/><path d="M161.761,86.569c-2.642,0-3.962-1.855-3.962-4.151v-9.5h-1.95v-1.73h1.95V66.347h2.264v4.844h3.3v1.73h-3.3v9.434c0,1.415.661,2.264,2.107,2.264h1.2v1.95Z" transform="translate(826 487)"/><path d="M185.661,86.569h-2.232L178.46,68.643l-4.969,17.926h-2.233l-5.724-22.392h2.548l4.371,18.052,4.938-18.052h2.139l4.937,18.052,4.371-18.052h2.547Z" transform="translate(826 487)"/><path d="M203.4,85a6.465,6.465,0,0,1-8.868,0c-1.573-1.605-1.887-3.775-1.887-6.164s.314-4.56,1.887-6.164a6.463,6.463,0,0,1,8.868,0c1.573,1.6,1.887,3.774,1.887,6.164S204.971,83.392,203.4,85Zm-1.6-10.945a3.965,3.965,0,0,0-2.83-1.131,3.894,3.894,0,0,0-2.8,1.131c-1.133,1.132-1.258,3.051-1.258,4.781s.125,3.648,1.258,4.78a3.891,3.891,0,0,0,2.8,1.132,3.962,3.962,0,0,0,2.83-1.132c1.132-1.132,1.227-3.051,1.227-4.78S202.926,75.184,201.794,74.052Z" transform="translate(826 487)"/><path d="M220.065,85a6.465,6.465,0,0,1-8.868,0c-1.573-1.605-1.887-3.775-1.887-6.164s.314-4.56,1.887-6.164a6.463,6.463,0,0,1,8.868,0c1.573,1.6,1.887,3.774,1.887,6.164S221.638,83.392,220.065,85Zm-1.6-10.945a3.965,3.965,0,0,0-2.83-1.131,3.894,3.894,0,0,0-2.8,1.131c-1.133,1.132-1.258,3.051-1.258,4.781s.125,3.648,1.258,4.78a3.891,3.891,0,0,0,2.8,1.132,3.962,3.962,0,0,0,2.83-1.132c1.132-1.132,1.227-3.051,1.227-4.78S219.593,75.184,218.461,74.052Z" transform="translate(826 487)"/><path d="M236.04,86.569V84.714a5.01,5.01,0,0,1-4.4,2.043,5.386,5.386,0,0,1-3.774-1.352c-1.573-1.572-1.887-4.15-1.887-6.572s.314-5,1.887-6.573a5.386,5.386,0,0,1,3.774-1.352,4.975,4.975,0,0,1,4.371,1.981V64.177h2.264V86.569Zm-3.9-13.648c-3.365,0-3.9,2.893-3.9,5.912s.535,5.912,3.9,5.912,3.868-2.893,3.868-5.912S235.506,72.921,232.141,72.921Z" transform="translate(826 487)"/><path d="M244,63.293a3.463,3.463,0,1,1-3.463,3.463A3.444,3.444,0,0,1,244,63.293Zm0,6.422a2.962,2.962,0,1,0-2.848-2.959A2.874,2.874,0,0,0,244,69.715Zm.8-1.061c-.111-.214-.167-.307-.316-.567a4.946,4.946,0,0,0-.67-.959.454.454,0,0,0-.345-.177v1.7h-.54V64.81h1.08a1.238,1.238,0,0,1,.912.28,1.036,1.036,0,0,1,.345.791.99.99,0,0,1-1.033,1.061,1.6,1.6,0,0,1,.335.354,5.314,5.314,0,0,1,.325.474c.168.261.484.763.558.884Zm-.456-3.332a1.25,1.25,0,0,0-.475-.074h-.4v1.34h.372a.951.951,0,0,0,.671-.177.74.74,0,0,0,.186-.521A.6.6,0,0,0,244.342,65.322Z" transform="translate(826 487)"/><path class="b" d="M28.968,50H21.442l30.4-33.167h7.526Z" transform="translate(826 487)"/><rect class="c" width="6.67" height="34.054" transform="translate(875.835 503.838)"/><rect class="d" width="7.509" height="33.181" transform="translate(846.578 504.711)"/><path class="e" d="M28.961,16.838l-.874.873V50.891l.874-.874Z" transform="translate(826 487)"/><path class="f" d="M28.961,16.838H21.452l-.874.873h7.509Z" transform="translate(826 487)"/><path class="b" d="M60.04,50H52.515l30.4-33.167h7.525Z" transform="translate(826 487)"/><rect class="d" width="7.51" height="33.181" transform="translate(877.651 504.711)"/><path class="e" d="M60.034,16.838l-.874.873V50.891l.874-.874Z" transform="translate(826 487)"/><path class="f" d="M60.034,16.838H52.525l-.875.873h7.51Z" transform="translate(826 487)"/><path class="b" d="M28.968,85.8H21.442l30.4-33.168h7.526Z" transform="translate(826 487)"/><rect class="c" width="6.67" height="34.056" transform="translate(875.835 539.636)"/><rect class="g" width="7.509" height="33.182" transform="translate(846.578 540.51)"/><path class="h" d="M28.961,52.636l-.874.874V86.692l.874-.874Z" transform="translate(826 487)"/><path class="e" d="M28.961,52.636H21.452l-.874.874h7.509Z" transform="translate(826 487)"/><path class="b" d="M60.04,85.8H52.515l30.4-33.168h7.525Z" transform="translate(826 487)"/><rect class="g" width="7.51" height="33.182" transform="translate(877.651 540.51)"/><path class="h" d="M60.034,52.636l-.874.874V86.692l.874-.874Z" transform="translate(826 487)"/><path class="e" d="M60.034,52.636H52.525l-.875.874h7.51Z" transform="translate(826 487)"/><path class="i" d="M29.834,15.42l-.874.873v34.6l.874-.874Z" transform="translate(826 487)"/><path class="i" d="M60.907,15.42l-.874.873v34.6l.874-.874Z" transform="translate(826 487)"/><path class="i" d="M29.834,51.219l-.874.874v34.6l.874-.874Z" transform="translate(826 487)"/><path class="i" d="M60.907,51.219l-.874.874v34.6l.874-.874Z" transform="translate(826 487)"/><rect class="j" width="260.787" height="7.509" transform="translate(829.756 490.756)"/><rect class="j" width="260.787" height="7.509" transform="translate(829.756 582.46)"/></g></svg>