<?xml version="1.0" encoding="UTF-8"?>
<!-- Generator: Adobe Illustrator 15.1.0, SVG Export Plug-In . SVG Version: 6.00 Build 0)  -->
<!DOCTYPE svg PUBLIC "-//W3C//DTD SVG 1.1//EN" "http://www.w3.org/Graphics/SVG/1.1/DTD/svg11.dtd">
<svg version="1.1" id="Ebene_1" xmlns="http://www.w3.org/2000/svg" xmlns:xlink="http://www.w3.org/1999/xlink" x="0px" y="0px" width="595.281px" height="595.28px" viewBox="0 123.305 595.281 595.28" enable-background="new 0 123.305 595.281 595.28" xml:space="preserve">
<rect x="15.4" y="139.699" fill="none" width="563.985" height="562.997"/>
<title>NIE-icon-kran</title>
<g id="Ebene_18">
	<path fill="#DA1A1D" d="M541.023,141.132c20.113,0.017,36.412,16.317,36.43,36.43v486.766c-0.018,20.112-16.316,36.412-36.43,36.43   H54.257c-20.113-0.018-36.413-16.317-36.43-36.43V177.563c0.017-20.113,16.317-36.413,36.43-36.43H541.023 M541.023,123.305H54.257   C24.292,123.305,0,147.597,0,177.563v486.766c0,29.965,24.292,54.257,54.257,54.257l0,0h486.766   c29.965,0,54.258-24.292,54.258-54.257l0,0V177.563C595.281,147.597,570.988,123.305,541.023,123.305z"/>
</g>
<g>
	<g>
		<path fill="#DB0000" d="M478.757,314.333c-1.666-3.767-5.078-6.469-9.125-7.229c-4.053-0.762-8.211,0.523-11.127,3.43    L412.358,356.5c-6.986,6.987-16.279,10.835-26.162,10.836c-9.881,0-19.172-3.848-26.16-10.837    c-6.988-6.988-10.837-16.278-10.838-26.161c0-9.883,3.85-19.173,10.822-26.148l46.106-45.974    c2.922-2.912,4.219-7.079,3.465-11.135c-0.754-4.057-3.461-7.479-7.231-9.146c-12.121-5.361-25.594-8.196-38.965-8.197    c-24.838,0.001-47.882,9.361-64.879,26.36l-15.198,15.196c-26.349,26.348-34.146,65.179-20.721,99.207L137.66,495.438    c-11.143,11.146-17.28,25.959-17.281,41.719c-0.001,15.759,6.136,30.574,17.279,41.719c11.145,11.145,25.961,17.279,41.719,17.279    c15.759-0.001,30.574-6.138,41.719-17.279l124.951-124.952c10.72,4.191,22.238,6.379,33.797,6.379    c24.705,0,47.931-9.619,65.396-27.088l15.195-15.194C487.057,391.397,494.417,349.729,478.757,314.333z M379.843,435.303    c-10.801-0.002-21.477-2.541-31.002-7.48c-5.295-2.744-11.396-1.079-15.518,3.293L203.417,561.196    c-6.422,6.423-14.96,9.958-24.041,9.958s-17.619-3.536-24.041-9.957c-6.42-6.422-9.957-14.959-9.957-24.04    s3.537-17.619,9.959-24.041L285.397,383.19c4.484-4.262,6.041-10.226,3.294-15.521c-13.597-26.223-8.599-57.795,12.305-78.698    l15.197-15.196c12.276-12.277,29.041-19.039,47.201-19.039c3.373,0,6.752,0.242,10.096,0.719L342.355,286.5    c-11.711,11.71-18.158,27.279-18.158,43.839c0.002,16.561,6.449,32.13,18.16,43.839c11.709,11.711,27.278,18.16,43.84,18.159    c16.561-0.002,32.129-6.45,43.82-18.141l31.215-31.094c2.965,20.932-3.603,42.364-18.476,57.238l-15.194,15.196    C414.817,428.282,397.869,435.303,379.843,435.303z"/>
		<path fill="#DB0000" d="M182.273,514.762c-5.209,0-10.106,2.027-13.789,5.711c-3.683,3.685-5.711,8.58-5.711,13.789    s2.027,10.104,5.711,13.789c3.683,3.684,8.58,5.711,13.789,5.711c5.209-0.002,10.104-2.027,13.789-5.713    c3.684-3.683,5.711-8.58,5.711-13.787c0-5.209-2.028-10.105-5.711-13.789C192.377,516.788,187.482,514.762,182.273,514.762z"/>
	</g>
</g>
</svg>